<svg width="34" height="33" viewBox="0 0 34 33" fill="none" xmlns="http://www.w3.org/2000/svg">
<path d="M6.58203 23.298C6.31891 23.1226 6.10483 22.876 5.96697 22.5771C5.71337 22.0284 5.76129 21.4023 6.09482 20.9021L7.49457 18.8029C7.25012 15.8982 8.17792 13.093 10.1232 10.8767C13.244 7.3205 18.6093 6.27784 22.8799 8.39757C25.8882 9.89034 28.0077 12.6055 28.6989 15.8474C29.3903 19.0895 28.5584 22.4074 26.4169 24.9511C23.3152 28.6349 17.8901 29.7494 13.5176 27.602C11.7752 26.7447 10.3019 25.4444 9.23677 23.8218L7.33036 23.5767C7.0573 23.5415 6.80216 23.4448 6.58203 23.298Z" fill="url(#paint0_linear_29_256)"/>
<g filter="url(#filter0_bd_29_256)">
<path d="M6.41115 26.6832C6.06603 26.6832 5.72237 26.5882 5.41628 26.3988C4.8538 26.0513 4.51826 25.4491 4.51826 24.7878V22.0124C2.53773 19.5032 1.68181 16.3697 2.10625 13.1542C2.78672 7.99513 7.02694 3.76666 12.1878 3.10046C15.8229 2.63085 19.3911 3.82231 21.9814 6.36749C24.572 8.91267 25.8254 12.4569 25.421 16.0918C24.8351 21.356 20.5842 25.6867 15.314 26.3898C13.213 26.6684 11.0881 26.3775 9.13864 25.5425L7.2593 26.4816C6.99008 26.616 6.69989 26.6832 6.41115 26.6832Z" fill="url(#paint1_linear_29_256)" fill-opacity="0.6"/>
<path d="M12.2951 3.93289H12.3032M6.41115 26.6832C6.06603 26.6832 5.72237 26.5882 5.41628 26.3988C4.8538 26.0513 4.51826 25.4491 4.51826 24.7878V22.0124C2.53773 19.5032 1.68181 16.3697 2.10625 13.1542C2.78672 7.99513 7.02694 3.76666 12.1878 3.10046C15.8229 2.63085 19.3911 3.82231 21.9814 6.36749C24.572 8.91267 25.8254 12.4569 25.421 16.0918C24.8351 21.356 20.5842 25.6867 15.314 26.3898C13.213 26.6684 11.0881 26.3775 9.13864 25.5425L7.2593 26.4816C6.99008 26.616 6.69989 26.6832 6.41115 26.6832Z" stroke="url(#paint2_linear_29_256)" stroke-linecap="round" stroke-linejoin="round"/>
</g>
<path d="M7.91599 17.4016L11.7679 11.9193C11.9284 11.6385 12.2984 11.5621 12.557 11.7559L15.1374 13.6911C15.3123 13.8223 15.549 13.8344 15.7364 13.722L18.8785 11.501C19.3397 11.2244 19.8761 11.7213 19.6358 12.2023L16.5251 17.5844C16.385 17.8645 16.0363 17.966 15.7678 17.8049L12.323 15.738C12.1654 15.6435 11.9705 15.6359 11.806 15.7181L8.62284 18.1487C8.14745 18.3867 7.65218 17.8632 7.91599 17.4016Z" fill="white"/>
<defs>
<filter id="filter0_bd_29_256" x="-2.5" y="-1.5" width="33.4956" height="32.6832" filterUnits="userSpaceOnUse" color-interpolation-filters="sRGB">
<feFlood flood-opacity="0" result="BackgroundImageFix"/>
<feGaussianBlur in="BackgroundImageFix" stdDeviation="2"/>
<feComposite in2="SourceAlpha" operator="in" result="effect1_backgroundBlur_29_256"/>
<feColorMatrix in="SourceAlpha" type="matrix" values="0 0 0 0 0 0 0 0 0 0 0 0 0 0 0 0 0 0 127 0" result="hardAlpha"/>
<feOffset dx="2" dy="1"/>
<feGaussianBlur stdDeviation="1.5"/>
<feColorMatrix type="matrix" values="0 0 0 0 0 0 0 0 0 0 0 0 0 0 0 0 0 0 0.1 0"/>
<feBlend mode="normal" in2="effect1_backgroundBlur_29_256" result="effect2_dropShadow_29_256"/>
<feBlend mode="normal" in="SourceGraphic" in2="effect2_dropShadow_29_256" result="shape"/>
</filter>
<linearGradient id="paint0_linear_29_256" x1="26.7596" y1="14.8416" x2="1.54699" y2="30.9577" gradientUnits="userSpaceOnUse">
<stop stop-color="#00F0FF"/>
<stop offset="1" stop-color="#0500FF" stop-opacity="0.1"/>
</linearGradient>
<linearGradient id="paint1_linear_29_256" x1="20.927" y1="8.9208" x2="-23.3131" y2="58.4478" gradientUnits="userSpaceOnUse">
<stop stop-color="#00F0FF"/>
<stop offset="1" stop-color="#52E7F8"/>
</linearGradient>
<linearGradient id="paint2_linear_29_256" x1="24.6067" y1="12.6886" x2="3.56488" y2="28.7352" gradientUnits="userSpaceOnUse">
<stop stop-color="white"/>
<stop offset="1" stop-color="white" stop-opacity="0"/>
</linearGradient>
</defs>
</svg>
