<svg width="37" height="31" viewBox="0 0 37 31" fill="none" xmlns="http://www.w3.org/2000/svg">
<path d="M24.998 7.80716C22.4255 6.2731 19.2619 7.61088 17.6987 10.2323C15.0189 14.7262 17.3758 18.6426 20.0787 24.1647C26.2218 23.9177 30.7878 24.1297 33.4677 19.6359C35.0309 17.0144 34.7041 13.5952 32.1316 12.0611C30.4758 11.0738 28.5566 11.1984 27.6715 11.4321C27.4564 10.5423 26.6538 8.79455 24.998 7.80716Z" fill="url(#paint0_linear_29_266)"/>
<g filter="url(#filter0_bd_29_266)">
<path d="M5.82743 8.83824C2.35543 10.5991 1.62804 15.0038 3.42236 18.5418C6.49832 24.607 12.4379 24.7375 20.3819 25.6032C24.3771 18.6826 27.7811 13.8134 24.7051 7.74823C22.9108 4.2102 18.9273 2.19459 15.4554 3.95542C13.2206 5.08877 12.0246 7.28389 11.6667 8.41854C10.5398 8.03693 8.06216 7.70489 5.82743 8.83824Z" fill="url(#paint1_linear_29_266)" fill-opacity="0.4"/>
<path d="M5.82743 8.83824C2.35543 10.5991 1.62804 15.0038 3.42236 18.5418C6.49832 24.607 12.4379 24.7375 20.3819 25.6032C24.3771 18.6826 27.7811 13.8134 24.7051 7.74823C22.9108 4.2102 18.9273 2.19459 15.4554 3.95542C13.2206 5.08877 12.0246 7.28389 11.6667 8.41854C10.5398 8.03693 8.06216 7.70489 5.82743 8.83824Z" stroke="url(#paint2_linear_29_266)" stroke-linecap="round" stroke-linejoin="round"/>
</g>
<defs>
<filter id="filter0_bd_29_266" x="-2.02295" y="-1.19588" width="33.4183" height="31.2991" filterUnits="userSpaceOnUse" color-interpolation-filters="sRGB">
<feFlood flood-opacity="0" result="BackgroundImageFix"/>
<feGaussianBlur in="BackgroundImageFix" stdDeviation="2"/>
<feComposite in2="SourceAlpha" operator="in" result="effect1_backgroundBlur_29_266"/>
<feColorMatrix in="SourceAlpha" type="matrix" values="0 0 0 0 0 0 0 0 0 0 0 0 0 0 0 0 0 0 127 0" result="hardAlpha"/>
<feOffset dx="2" dy="1"/>
<feGaussianBlur stdDeviation="1.5"/>
<feColorMatrix type="matrix" values="0 0 0 0 1 0 0 0 0 0 0 0 0 0 0 0 0 0 0.1 0"/>
<feBlend mode="normal" in2="effect1_backgroundBlur_29_266" result="effect2_dropShadow_29_266"/>
<feBlend mode="normal" in="SourceGraphic" in2="effect2_dropShadow_29_266" result="shape"/>
</filter>
<linearGradient id="paint0_linear_29_266" x1="28.3312" y1="8.93904" x2="16.5356" y2="23.4496" gradientUnits="userSpaceOnUse">
<stop stop-color="#FF6362"/>
<stop offset="1" stop-color="#FF9D94"/>
</linearGradient>
<linearGradient id="paint1_linear_29_266" x1="19.5796" y1="7.90039" x2="14.7528" y2="27.7266" gradientUnits="userSpaceOnUse">
<stop stop-color="#FF2E00"/>
<stop offset="1" stop-color="#FF0000"/>
</linearGradient>
<linearGradient id="paint2_linear_29_266" x1="21.318" y1="4.00048" x2="15.6439" y2="32.1883" gradientUnits="userSpaceOnUse">
<stop stop-color="white"/>
<stop offset="1" stop-color="white" stop-opacity="0"/>
</linearGradient>
</defs>
</svg>
