<svg width="36" height="34" viewBox="0 0 36 34" fill="none" xmlns="http://www.w3.org/2000/svg">
<g filter="url(#filter0_b_29_235)">
<path fill-rule="evenodd" clip-rule="evenodd" d="M25.5262 7.12858C25.419 6.4466 24.7792 5.98067 24.0972 6.08789C23.4153 6.19511 22.9493 6.83489 23.0566 7.51687L23.4253 9.86197L20.9 8.46565C18.9667 7.39666 16.5329 8.09731 15.4639 10.0306L10.5706 18.8802C9.50164 20.8134 10.2023 23.2473 12.1356 24.3162L20.9851 29.2095C22.9184 30.2785 25.3522 29.5779 26.4212 27.6446L31.3145 18.795C32.3835 16.8617 31.6828 14.4279 29.7496 13.3589L27.2244 11.9627L29.4066 11.0281C30.0412 10.7563 30.3353 10.0215 30.0635 9.38689C29.7917 8.75228 29.057 8.45817 28.4224 8.72997L25.9448 9.79107L25.5262 7.12858Z" fill="url(#paint0_linear_29_235)" fill-opacity="0.4"/>
<path d="M24.0972 6.08789L24.1361 6.33486L24.1361 6.33486L24.0972 6.08789ZM25.5262 7.12858L25.7732 7.08975L25.7732 7.08975L25.5262 7.12858ZM23.0566 7.51687L22.8096 7.5557L23.0566 7.51687ZM23.4253 9.86197L23.3043 10.0808C23.3878 10.127 23.4904 10.1215 23.5686 10.0668C23.6469 10.012 23.6871 9.91746 23.6722 9.82314L23.4253 9.86197ZM12.1356 24.3162L12.0146 24.535L12.1356 24.3162ZM20.9851 29.2095L21.1061 28.9907L20.9851 29.2095ZM26.4212 27.6446L26.2024 27.5236L26.4212 27.6446ZM31.3145 18.795L31.5333 18.916L31.3145 18.795ZM27.2244 11.9627L27.126 11.7329C27.0382 11.7705 26.9795 11.8548 26.9747 11.9501C26.9699 12.0455 27.0199 12.1353 27.1034 12.1815L27.2244 11.9627ZM29.4066 11.0281L29.3082 10.7983L29.4066 11.0281ZM30.0635 9.38689L29.8337 9.48531L30.0635 9.38689ZM28.4224 8.72997L28.3239 8.50016L28.3239 8.50016L28.4224 8.72997ZM25.9448 9.79107L25.6979 9.8299C25.7098 9.90611 25.7563 9.97252 25.8239 10.0099C25.8914 10.0472 25.9723 10.0513 26.0432 10.0209L25.9448 9.79107ZM24.1361 6.33486C24.6817 6.24908 25.1935 6.62183 25.2793 7.16741L25.7732 7.08975C25.6445 6.27138 24.8768 5.71226 24.0584 5.84093L24.1361 6.33486ZM23.3035 7.47804C23.2177 6.93246 23.5905 6.42064 24.1361 6.33486L24.0584 5.84093C23.24 5.96959 22.6809 6.73732 22.8096 7.5557L23.3035 7.47804ZM23.6722 9.82314L23.3035 7.47804L22.8096 7.5557L23.1783 9.9008L23.6722 9.82314ZM20.779 8.68443L23.3043 10.0808L23.5462 9.64319L21.021 8.24687L20.779 8.68443ZM15.6827 10.1516C16.6849 8.33911 18.9666 7.68225 20.779 8.68443L21.021 8.24687C18.9669 7.11107 16.3809 7.85551 15.2451 9.90961L15.6827 10.1516ZM10.7894 19.0011L15.6827 10.1516L15.2451 9.90961L10.3518 18.7592L10.7894 19.0011ZM12.2565 24.0975C10.4441 23.0953 9.78724 20.8136 10.7894 19.0011L10.3518 18.7592C9.21605 20.8133 9.96049 23.3992 12.0146 24.535L12.2565 24.0975ZM21.1061 28.9907L12.2565 24.0975L12.0146 24.535L20.8642 29.4283L21.1061 28.9907ZM26.2024 27.5236C25.2003 29.3361 22.9186 29.9929 21.1061 28.9907L20.8642 29.4283C22.9183 30.5641 25.5042 29.8197 26.64 27.7656L26.2024 27.5236ZM31.0957 18.674L26.2024 27.5236L26.64 27.7656L31.5333 18.916L31.0957 18.674ZM29.6286 13.5777C31.441 14.5799 32.0979 16.8616 31.0957 18.674L31.5333 18.916C32.6691 16.8619 31.9246 14.2759 29.8705 13.1401L29.6286 13.5777ZM27.1034 12.1815L29.6286 13.5777L29.8705 13.1401L27.3454 11.7439L27.1034 12.1815ZM29.3082 10.7983L27.126 11.7329L27.3228 12.1925L29.505 11.2579L29.3082 10.7983ZM29.8337 9.48531C30.0512 9.99299 29.8159 10.5808 29.3082 10.7983L29.505 11.2579C30.2666 10.9317 30.6195 10.05 30.2933 9.28846L29.8337 9.48531ZM28.5208 8.95978C29.0285 8.74234 29.6163 8.97763 29.8337 9.48531L30.2933 9.28846C29.9672 8.52694 29.0854 8.174 28.3239 8.50016L28.5208 8.95978ZM26.0432 10.0209L28.5208 8.95978L28.3239 8.50016L25.8464 9.56126L26.0432 10.0209ZM25.2793 7.16741L25.6979 9.8299L26.1918 9.75224L25.7732 7.08975L25.2793 7.16741Z" fill="url(#paint1_linear_29_235)" fill-opacity="0.5"/>
</g>
<g filter="url(#filter1_bd_29_235)">
<path fill-rule="evenodd" clip-rule="evenodd" d="M8.44075 3.67858C7.92872 3.21552 7.13826 3.25522 6.6752 3.76725C6.21215 4.27927 6.25184 5.06973 6.76387 5.53279L8.94399 7.5044L6.66208 7.90677C3.39872 8.48219 1.21971 11.5941 1.79513 14.8575L3.38818 23.8921C3.9636 27.1555 7.07554 29.3345 10.3389 28.7591L19.3735 27.166C22.6369 26.5906 24.8159 23.4787 24.2405 20.2153L22.6475 11.1807C22.072 7.91731 18.9601 5.7383 15.6967 6.31372L13.4149 6.71606L14.7892 4.11771C15.112 3.50745 14.8789 2.75109 14.2687 2.42831C13.6584 2.10554 12.902 2.33859 12.5793 2.94885L10.9791 5.97419L8.44075 3.67858Z" fill="url(#paint2_linear_29_235)" fill-opacity="0.5"/>
<path d="M6.6752 3.76725L6.86062 3.93493L6.86062 3.93493L6.6752 3.76725ZM8.44075 3.67858L8.60843 3.49316L8.60843 3.49316L8.44075 3.67858ZM6.76387 5.53279L6.59618 5.71821L6.59618 5.71821L6.76387 5.53279ZM8.94399 7.5044L8.9874 7.75061C9.08143 7.73403 9.15781 7.66533 9.18423 7.57358C9.21065 7.48182 9.18249 7.38303 9.11167 7.31898L8.94399 7.5044ZM10.3389 28.7591L10.2955 28.5129L10.3389 28.7591ZM19.3735 27.166L19.417 27.4122L19.3735 27.166ZM24.2405 20.2153L24.4867 20.1719L24.2405 20.2153ZM22.6475 11.1807L22.4012 11.2241L22.6475 11.1807ZM13.4149 6.71606L13.1939 6.59918C13.1493 6.68358 13.1566 6.78604 13.2128 6.86323C13.269 6.94042 13.3643 6.97885 13.4583 6.96227L13.4149 6.71606ZM14.7892 4.11771L14.5682 4.00082L14.7892 4.11771ZM12.5793 2.94885L12.3583 2.83196L12.5793 2.94885ZM10.9791 5.97419L10.8114 6.15962C10.8687 6.21136 10.9466 6.23379 11.0225 6.2204C11.0985 6.207 11.164 6.15928 11.2001 6.09108L10.9791 5.97419ZM6.86062 3.93493C7.23107 3.52531 7.86344 3.49356 8.27306 3.864L8.60843 3.49316C7.994 2.93749 7.04545 2.98513 6.48978 3.59956L6.86062 3.93493ZM6.93156 5.34737C6.52194 4.97692 6.49018 4.34455 6.86062 3.93493L6.48978 3.59956C5.93411 4.21399 5.98175 5.16254 6.59618 5.71821L6.93156 5.34737ZM9.11167 7.31898L6.93156 5.34737L6.59618 5.71821L8.7763 7.68983L9.11167 7.31898ZM6.7055 8.15297L8.9874 7.75061L8.90057 7.2582L6.61867 7.66056L6.7055 8.15297ZM2.04133 14.8141C1.48988 11.6867 3.5781 8.70441 6.7055 8.15297L6.61867 7.66056C3.21933 8.25996 0.949529 11.5016 1.54892 14.9009L2.04133 14.8141ZM3.63438 23.8487L2.04133 14.8141L1.54892 14.9009L3.14197 23.9355L3.63438 23.8487ZM10.2955 28.5129C7.16811 29.0643 4.18582 26.9761 3.63438 23.8487L3.14197 23.9355C3.74137 27.3349 6.98298 29.6047 10.3823 29.0053L10.2955 28.5129ZM19.3301 26.9198L10.2955 28.5129L10.3823 29.0053L19.417 27.4122L19.3301 26.9198ZM23.9943 20.2587C24.5457 23.3861 22.4575 26.3684 19.3301 26.9198L19.417 27.4122C22.8163 26.8128 25.0861 23.5712 24.4867 20.1719L23.9943 20.2587ZM22.4012 11.2241L23.9943 20.2587L24.4867 20.1719L22.8937 11.1373L22.4012 11.2241ZM15.7401 6.55992C18.8675 6.00847 21.8498 8.09669 22.4012 11.2241L22.8937 11.1373C22.2943 7.73792 19.0526 5.46812 15.6533 6.06751L15.7401 6.55992ZM13.4583 6.96227L15.7401 6.55992L15.6533 6.06751L13.3715 6.46986L13.4583 6.96227ZM14.5682 4.00082L13.1939 6.59918L13.6359 6.83295L15.0102 4.23459L14.5682 4.00082ZM14.1518 2.64931C14.64 2.90752 14.8264 3.51262 14.5682 4.00082L15.0102 4.23459C15.3975 3.50229 15.1179 2.59465 14.3856 2.20732L14.1518 2.64931ZM12.8003 3.06573C13.0585 2.57753 13.6636 2.39109 14.1518 2.64931L14.3856 2.20732C13.6532 1.82 12.7456 2.09966 12.3583 2.83196L12.8003 3.06573ZM11.2001 6.09108L12.8003 3.06573L12.3583 2.83196L10.7581 5.85731L11.2001 6.09108ZM8.27306 3.864L10.8114 6.15962L11.1468 5.78877L8.60843 3.49316L8.27306 3.864Z" fill="url(#paint3_linear_29_235)" fill-opacity="0.5"/>
</g>
<path d="M6.93577 18.6089L12.7113 15.7988L13.1709 18.4054L18.1542 16.1829" stroke="white" stroke-width="2.5" stroke-linecap="round" stroke-linejoin="round"/>
<defs>
<filter id="filter0_b_29_235" x="5.82037" y="1.82251" width="30.2444" height="32.1373" filterUnits="userSpaceOnUse" color-interpolation-filters="sRGB">
<feFlood flood-opacity="0" result="BackgroundImageFix"/>
<feGaussianBlur in="BackgroundImageFix" stdDeviation="2"/>
<feComposite in2="SourceAlpha" operator="in" result="effect1_backgroundBlur_29_235"/>
<feBlend mode="normal" in="SourceGraphic" in2="effect1_backgroundBlur_29_235" result="shape"/>
</filter>
<filter id="filter1_bd_29_235" x="-2.54706" y="-1.96703" width="32.1298" height="35.0683" filterUnits="userSpaceOnUse" color-interpolation-filters="sRGB">
<feFlood flood-opacity="0" result="BackgroundImageFix"/>
<feGaussianBlur in="BackgroundImageFix" stdDeviation="2"/>
<feComposite in2="SourceAlpha" operator="in" result="effect1_backgroundBlur_29_235"/>
<feColorMatrix in="SourceAlpha" type="matrix" values="0 0 0 0 0 0 0 0 0 0 0 0 0 0 0 0 0 0 127 0" result="hardAlpha"/>
<feOffset dx="2" dy="1"/>
<feGaussianBlur stdDeviation="1.5"/>
<feColorMatrix type="matrix" values="0 0 0 0 1 0 0 0 0 0 0 0 0 0 0 0 0 0 0.1 0"/>
<feBlend mode="normal" in2="effect1_backgroundBlur_29_235" result="effect2_dropShadow_29_235"/>
<feBlend mode="normal" in="SourceGraphic" in2="effect2_dropShadow_29_235" result="shape"/>
</filter>
<linearGradient id="paint0_linear_29_235" x1="28.0697" y1="17.3849" x2="12.2939" y2="22.2563" gradientUnits="userSpaceOnUse">
<stop stop-color="#FFC700"/>
<stop offset="1" stop-color="#FF6B00"/>
</linearGradient>
<linearGradient id="paint1_linear_29_235" x1="31.3822" y1="16.5929" x2="9.34818" y2="24.3949" gradientUnits="userSpaceOnUse">
<stop stop-color="white"/>
<stop offset="1" stop-color="white" stop-opacity="0"/>
</linearGradient>
<linearGradient id="paint2_linear_29_235" x1="18.4541" y1="11.1092" x2="7.80067" y2="27.1052" gradientUnits="userSpaceOnUse">
<stop stop-color="#FFC700"/>
<stop offset="1" stop-color="#FF6B00"/>
</linearGradient>
<linearGradient id="paint3_linear_29_235" x1="20.888" y1="7.97691" x2="6.74643" y2="31.211" gradientUnits="userSpaceOnUse">
<stop stop-color="white"/>
<stop offset="1" stop-color="white" stop-opacity="0"/>
</linearGradient>
</defs>
</svg>
